# xmcd
#
# Track frame offsets:
#	150
#	12682
#	24287
#	36945
#	50862
#	67777
#	83305
#	92822
#	105962
#	118385
#	131765
#	152617
#	166312
#	177402
#	190375
#	208417
#
# Disc length: 3009 seconds
#
# Revision: 1
# Processed by: cddbd v1.5.1PL0 Copyright (c) Steve Scherf et al.
# Submitted via: audiograbber 1.83.01
#
DISCID=d90bbf10
DTITLE=Various Artist - Country Magic [CD3]
DYEAR=1900
DGENRE=Miscellaneous
TTITLE0=Tanya Tucker - You Are So Beautiful
TTITLE1=Dr Hook - Sing Me A Rainbow
TTITLE2=Glen Campbell - A Place In The Sun
TTITLE3=Johnny Carver - Tie A Yellow Ribbon Round The Old Oak Tree
TTITLE4=Crystal Gayle - Dancing The Night Away
TTITLE5=Larry Gatlin - Sure Feels Like Love
TTITLE6=Charley Pride - Kiss An Angel Good Morning
TTITLE7=Brenda Lee - Someone Loves You Honey
TTITLE8=Charlie Rich - Rollin' With The Flow
TTITLE9=Terri Gibbs - Somebody's Knockin'
TTITLE10=Willie Nelson - September Song
TTITLE11=Janie Fricke - When I Fall In Love
TTITLE12=Charlie Rich - Have You Ever Been Lonely
TTITLE13=Barbara Mandrell - A Very Special Love Song
TTITLE14=Roger Miller - Me And Bobby McGee
TTITLE15=George Hamilton IV - Streets Of London
EXTD=Country Magic\nReaders Digest
EXTT0=
EXTT1=
EXTT2=
EXTT3=
EXTT4=
EXTT5=
EXTT6=
EXTT7=
EXTT8=
EXTT9=
EXTT10=
EXTT11=
EXTT12=
EXTT13=
EXTT14=
EXTT15=
PLAYORDER=
